<svg xmlns="http://www.w3.org/2000/svg" width="54" height="54" viewBox="0 0 54 54">
  <g id="组_2211" data-name="组 2211" transform="translate(-15 -93)">
    <circle id="椭圆_215" data-name="椭圆 215" cx="27" cy="27" r="27" transform="translate(15 93)" fill="#fff"/>
    <path id="交叉_25" data-name="交叉 25" d="M-11172.4,54a26.924,26.924,0,0,1-19.378-8.62,22.242,22.242,0,0,1,10.092-10.23,15.645,15.645,0,0,0,9.69,3.364,15.654,15.654,0,0,0,9.736-3.4,21.935,21.935,0,0,1,10.095,10.21A26.923,26.923,0,0,1-11171.627,54Zm-11.684-31.222A12.1,12.1,0,0,1-11172,10.686a12.1,12.1,0,0,1,12.089,12.088A12.1,12.1,0,0,1-11172,34.86,12.1,12.1,0,0,1-11184.088,22.774Z" transform="translate(11214 93)" fill="#ebdcb3"/>
  </g>
</svg>
