<?xml version="1.0" encoding="UTF-8"?>
<svg width="24px" height="24px" viewBox="0 0 24 24" version="1.1" xmlns="http://www.w3.org/2000/svg" xmlns:xlink="http://www.w3.org/1999/xlink">
    <title>卡</title>
    <g id="卡" stroke="none" stroke-width="1" fill="none" fill-rule="evenodd">
        <path d="M18,5 L6,5 C3.790861,5 2,6.790861 2,9 L2,16 C2,18.209139 3.790861,20 6,20 L18,20 C20.209139,20 22,18.209139 22,16 L22,9 C22,6.790861 20.209139,5 18,5 Z M6,7 L18,7 C19.1045695,7 20,7.8954305 20,9 L20,16 C20,17.1045695 19.1045695,18 18,18 L6,18 C4.8954305,18 4,17.1045695 4,16 L4,9 C4,7.8954305 4.8954305,7 6,7 Z" id="矩形" fill="#202020" fill-rule="nonzero"></path>
        <g id="v" transform="translate(6.000000, 9.000000)" fill="#202020" fill-rule="nonzero">
            <path d="M5.77192983,0 L3.87719298,2.95412844 C3.80701754,3.05045871 3.63157895,3.35550458 3.33333333,3.85321101 C3.03508772,4.35091743 2.87719298,4.62385321 2.84210526,4.70412844 C2.80701754,4.43119266 2.71929824,3.8853211 2.57894736,3.06651376 L2.03508771,0.0160550462 L0,0.0160550462 L1.52631579,7 L3.29824562,7 L8,0 L5.77192983,0 Z" id="路径"></path>
        </g>
    </g>
</svg>