<?xml version="1.0" encoding="utf-8"?>
<!-- Generator: Adobe Illustrator 22.1.0, SVG Export Plug-In . SVG Version: 6.00 Build 0)  -->
<svg version="1.1" id="图层_1" xmlns="http://www.w3.org/2000/svg" xmlns:xlink="http://www.w3.org/1999/xlink" x="0px" y="0px"
	 viewBox="0 0 200 200" style="enable-background:new 0 0 200 200;" xml:space="preserve">
<style type="text/css">
	.st0{fill:#FFFFFF;}
</style>
<path class="st0" d="M33.3,131.5v29.6c0,2.8,2.1,5.2,4.9,5.5l0.7,0l34.4,0V180H38.9c-10,0-18.2-7.8-18.9-17.7l0-1.2v-29.6
	C20,131.5,33.3,131.5,33.3,131.5z M180,132.1v29c0,10-7.8,18.2-17.7,18.9l-1.1,0h-34.5v-13.3h34.5c2.8,0,5.2-2.1,5.5-4.9l0-0.7v-29
	H180z M185.4,93.3c0.7,0,1.3,0.6,1.3,1.3v10.8c0,0.7-0.6,1.3-1.2,1.3h0H14.6c-0.7,0-1.3-0.6-1.3-1.3l0,0V94.6c0-0.7,0.6-1.3,1.3-1.3
	H185.4z M73.3,20v13.3H38.9c-2.8,0-5.2,2.1-5.5,4.9l0,0.7v30.6H20V38.9c0-10,7.8-18.2,17.7-18.8l1.2,0H73.3z M161.1,20
	c10,0,18.2,7.8,18.9,17.7l0,1.1v30.6h-13.3V38.9c0-2.8-2.1-5.2-4.9-5.5l-0.7,0h-34.5V20H161.1L161.1,20z"/>
</svg>
